<svg width="24" height="24" viewBox="0 0 24 24" fill="none" xmlns="http://www.w3.org/2000/svg">
<path d="M12.4215 16.2671C12.4215 16.2671 12.4057 16.2671 12.3959 16.2671C9.7239 16.2671 8.10219 14.2543 8.10219 11.9882C8.10219 9.72214 9.84804 7.75258 12.3959 7.75258C13.4856 7.75258 14.4984 8.09229 15.3497 8.64212L18.067 5.84585C16.7054 4.79136 14.7132 4 12.4392 4C7.70415 4 4.08435 7.31271 4.08435 12.0314C4.08435 16.7501 7.47163 20 12.3112 20C12.3486 20 12.3841 19.998 12.4195 19.998C13.0797 19.9902 13.7181 19.9195 14.3329 19.7938V15.9215C13.7595 16.1296 13.1072 16.2651 12.4195 16.2671H12.4215Z" fill="#EBEEF1"/>
<path d="M13.8678 13.461H15.8876V19.3383C17.2157 18.8277 18.4098 18.0383 19.4443 17.0427V8.20227L13.8678 13.4629V13.461Z" fill="url(#paint0_linear_12_597)"/>
<defs>
<linearGradient id="paint0_linear_12_597" x1="16.656" y1="13.8183" x2="16.656" y2="19.3383" gradientUnits="userSpaceOnUse">
<stop stop-color="#EBEEF1"/>
<stop offset="1" stop-color="#EBEEF1" stop-opacity="0"/>
</linearGradient>
</defs>
</svg>
